<?xml version="1.0" encoding="UTF-8"?>
<svg version="1.1" xmlns="http://www.w3.org/2000/svg" width="687" height="716">
<path d="M0 0 C226.71 0 453.42 0 687 0 C687 236.28 687 472.56 687 716 C460.29 716 233.58 716 0 716 C0 479.72 0 243.44 0 0 Z " fill="#FCFDFC" transform="translate(0,0)"/>
<path d="M0 0 C15.78565102 1.1275465 15.78565102 1.1275465 22.35546875 2.234375 C23.06079742 2.35228394 23.7661261 2.47019287 24.49282837 2.5916748 C26.72603759 2.96882399 28.95691173 3.35766446 31.1875 3.75 C32.34709732 3.95224182 32.34709732 3.95224182 33.53012085 4.15856934 C45.20504291 6.20549571 56.67559021 8.45346032 68 12 C69.09022461 12.33483398 70.18044922 12.66966797 71.30371094 13.01464844 C88.82358733 18.44604403 105.53850969 24.84270179 122 33 C122.75458496 33.36383789 123.50916992 33.72767578 124.28662109 34.10253906 C138.0056994 40.73421265 150.53511998 49.28076946 163 58 C163.69754395 58.48694336 164.39508789 58.97388672 165.11376953 59.47558594 C178.78832589 69.18623803 192.3479371 81.75777076 201.82617188 95.5949707 C202.21353516 96.05863037 202.60089844 96.52229004 203 97 C203.66 97 204.32 97 205 97 C206.26313837 95.54585046 207.45780319 94.03222748 208.625 92.5 C247.85150402 43.64002068 310.8517643 16.61635373 371 5 C371.87591797 4.82887695 372.75183594 4.65775391 373.65429688 4.48144531 C384.85280053 2.32103391 395.5663043 1 407 1 C407 128.71 407 256.42 407 388 C371.86765939 388 338.74798569 384.31542344 307.83154297 367.02246094 C305.89173123 365.93955883 303.93404292 364.89482337 301.97265625 363.8515625 C287.68126607 356.15122536 275.18233867 346.67736835 263 336 C262.18402344 335.29617188 261.36804688 334.59234375 260.52734375 333.8671875 C255.08984522 329.09235573 249.93988619 324.04022683 244.8125 318.9375 C244.14694092 318.27661377 243.48138184 317.61572754 242.7956543 316.93481445 C238.32868312 312.45340324 234.1096661 307.81005391 230 303 C229.20335937 302.07316406 228.40671875 301.14632813 227.5859375 300.19140625 C220.43011701 291.68280697 213.67493906 282.8891853 207 274 C206.14051758 272.8560376 206.14051758 272.8560376 205.26367188 271.68896484 C203.50308925 269.33873457 201.75011834 266.98303086 200 264.625 C199.49178711 263.94429443 198.98357422 263.26358887 198.45996094 262.56225586 C187.0946207 247.15812327 176.63452486 231.05820266 165.9375 215.1875 C165.31125732 214.2588916 164.68501465 213.3302832 164.03979492 212.37353516 C155.99171137 200.43872649 147.97225849 188.48558067 140 176.5 C128.64477209 159.43495835 117.13534293 142.52224499 105 126 C104.4961377 125.31309082 103.99227539 124.62618164 103.47314453 123.91845703 C96.4872134 114.42277388 89.23057542 105.17768556 81.71508789 96.09545898 C80.48836985 94.5966802 79.27842559 93.08410969 78.07983398 91.56274414 C72.22888297 84.21127372 65.87695789 77.50455128 59.23706055 70.86645508 C57.45351041 69.07854951 55.68662308 67.2752394 53.91992188 65.47070312 C52.73796574 64.28287165 51.55505141 63.09599273 50.37109375 61.91015625 C49.86944199 61.39413345 49.36779022 60.87811066 48.85093689 60.34645081 C42.12480882 53.69836495 34.72899391 48.79674543 27 43 C26.67 142 26.34 241 26 343 C30.62 343.66 35.24 344.32 40 345 C83.77339738 353.15197427 126.20283232 369.9287301 161.296875 397.65527344 C162.82235566 398.85973838 164.36334599 400.04449894 165.90625 401.2265625 C186.00499395 417.00998789 186.00499395 417.00998789 190 425 C190.33 379.13 190.66 333.26 191 286 C196.63038549 291.63038549 196.63038549 291.63038549 198.796875 294.1640625 C199.2815625 294.72996094 199.76625 295.29585938 200.265625 295.87890625 C200.75546875 296.45511719 201.2453125 297.03132813 201.75 297.625 C202.224375 298.17800781 202.69875 298.73101562 203.1875 299.30078125 C204.18469412 300.46854805 205.16826577 301.64807379 206.13845158 302.83837414 C207.9975245 305.06601178 207.9975245 305.06601178 210.25784206 307.16825581 C216.81741243 313.9538672 218.13497304 319.71647415 218.11978149 328.79165649 C218.08794195 330.45185968 218.05522886 332.11204629 218.02172852 333.7722168 C218.01918571 335.54721445 218.02062293 337.32222156 218.02571106 339.09721375 C218.02828001 343.88650843 217.97559092 348.67375002 217.91254544 353.46256995 C217.85605644 358.47793484 217.85097912 363.49335349 217.84031677 368.50898743 C217.81240976 377.99346821 217.73864541 387.47700872 217.64817137 396.96107656 C217.54736716 407.7638949 217.49803863 418.56675955 217.45291245 429.36993158 C217.35898927 451.58047799 217.20081664 473.79017962 217 496 C213.06930223 494.11209411 209.61680774 491.69421766 206.0625 489.1875 C173.15629884 466.3627625 137.89584012 448.85670675 100 436 C99.14712402 435.70754395 98.29424805 435.41508789 97.41552734 435.11376953 C84.80642918 430.82308584 72.03700488 427.69508349 59 425 C58.13600586 424.81695313 57.27201172 424.63390625 56.38183594 424.4453125 C31.17185713 419.1721377 6.11833371 417.7261093 -19.5625 417.75 C-20.6217569 417.75068481 -21.68101379 417.75136963 -22.77236938 417.7520752 C-25.84965999 417.75864072 -28.92668824 417.77508693 -32.00390625 417.796875 C-32.90510193 417.80126587 -33.80629761 417.80565674 -34.73480225 417.81018066 C-42.21886509 417.89059742 -49.49034752 418.46359625 -57 419 C-57 293.27 -57 167.54 -57 38 C-45.7471384 38 -45.7471384 38 -41.9296875 38.40234375 C-41.09566406 38.48806641 -40.26164062 38.57378906 -39.40234375 38.66210938 C-38.56832031 38.75298828 -37.73429687 38.84386719 -36.875 38.9375 C-36.03324219 39.02451172 -35.19148438 39.11152344 -34.32421875 39.20117188 C-29.20543832 39.7368582 -24.10902284 40.36137214 -19 41 C-19 49.58 -19 58.16 -19 67 C-22.96 66.67 -26.92 66.34 -31 66 C-31 173.58 -31 281.16 -31 392 C-20.44 392 -9.88 392 1 392 C7.48668512 392.41316466 13.87151415 392.87471778 20.3125 393.625 C21.11019806 393.71302887 21.90789612 393.80105774 22.72976685 393.89175415 C72.36980628 399.37679774 118.86851925 412.31573386 164 434 C150.03767975 420.56655551 134.78212612 409.65379585 118 400 C117.31357422 399.60184082 116.62714844 399.20368164 115.91992188 398.79345703 C104.59593871 392.29497295 92.7563162 387.48989297 80.53222656 382.94873047 C78.45654089 382.17104877 76.39413856 381.35799782 74.3359375 380.53515625 C56.3900385 373.56609125 36.91255528 370.56832704 17.9453125 367.859375 C11.95038739 366.99282866 5.9748144 365.9958024 0 365 C0 244.55 0 124.1 0 0 Z " fill="#2A5D74" transform="translate(106,170)"/>
<path d="M0 0 C0 109.89 0 219.78 0 333 C-17.63996834 331.82400211 -17.63996834 331.82400211 -25.1875 329.9375 C-26.06841309 329.72053467 -26.94932617 329.50356934 -27.85693359 329.2800293 C-51.31182909 323.20632707 -72.84071269 311.66353363 -92 297 C-93.03640625 296.20851563 -94.0728125 295.41703125 -95.140625 294.6015625 C-102.80716711 288.40009258 -109.76061541 281.44202201 -116.75 274.5 C-117.24018616 274.01526215 -117.73037231 273.53052429 -118.2354126 273.03109741 C-124.95447427 266.36764546 -131.11362222 259.41050347 -137 252 C-138.0850128 250.68328207 -139.1731964 249.36916562 -140.265625 248.05859375 C-147.6974522 239.06763343 -154.65544048 229.81124218 -161.38476562 220.28466797 C-162.92051667 218.11242518 -164.46712687 215.94832154 -166.015625 213.78515625 C-175.45604472 200.51469949 -184.42618169 186.92796422 -193.41088867 173.34692383 C-198.99992961 164.91173717 -204.6801913 156.56339386 -210.54924011 148.32049561 C-215.66860945 141.10719007 -220.5472806 133.74036672 -225.42007446 126.35922241 C-233.5816254 114.00618334 -241.78812753 101.71776541 -250.63378906 89.83984375 C-252.05729356 87.92284412 -253.46398597 85.99440272 -254.8671875 84.0625 C-265.5169382 69.41337548 -276.433177 54.96102669 -288.6640625 41.58203125 C-289.94833627 40.16245773 -291.22581184 38.73621548 -292.47070312 37.28198242 C-297.45645774 31.46795395 -302.81036459 26.07544297 -308.25 20.6875 C-309.1471875 19.79482422 -310.044375 18.90214844 -310.96875 17.98242188 C-312.62286712 16.33697154 -314.27801551 14.69255673 -315.93457031 13.04956055 C-317.62693732 11.37019636 -319.31563865 9.68738594 -321 8 C-282.9257868 15.65409441 -246.23365819 36.63580304 -218 63 C-216.27166158 64.52177452 -214.54248774 66.04260073 -212.8125 67.5625 C-209.28402889 70.75074528 -205.93592506 73.9478797 -202.96923828 77.67114258 C-201.00315505 80.08926683 -201.00315505 80.08926683 -198.49487305 82.3359375 C-189.80027204 91.41602909 -189.92838385 100.01741953 -190.10742188 112.1875 C-190.17134742 114.54179124 -190.23974658 116.89596503 -190.3125 119.25 C-190.40499168 122.77965642 -190.48191251 126.30686082 -190.51615906 129.83758545 C-190.53861927 132.02088842 -190.59427257 134.20419821 -190.68904114 136.38555908 C-190.79139629 144.379017 -188.34865609 148.23768057 -183 154 C-181.68110857 155.89803564 -180.38501417 157.81237821 -179.125 159.75 C-176.22682176 164.17575969 -173.26211959 168.5471995 -170.2421875 172.890625 C-169.83154053 173.48246582 -169.42089355 174.07430664 -168.99780273 174.68408203 C-167.99916891 176.12316135 -166.99967589 177.56164438 -166 179 C-166.01451706 177.44930313 -166.01451706 177.44930313 -166.02932739 175.86727905 C-166.11443567 166.0704577 -166.14610517 156.27468669 -166.12697029 146.47749901 C-166.11881162 141.44179016 -166.12873951 136.40753726 -166.18164062 131.37207031 C-166.23211194 126.50194902 -166.23293275 121.63400473 -166.20095444 116.76375198 C-166.19723582 114.91641124 -166.21067826 113.06894468 -166.24249649 111.22187424 C-166.45850936 97.75766089 -164.04384717 90.04805204 -155 80 C-154.3194606 79.19758377 -153.6389212 78.39516754 -152.9377594 77.56843567 C-151.34865293 75.71024351 -149.70089856 73.94342837 -148 72.1875 C-147.40243896 71.56133789 -146.80487793 70.93517578 -146.18920898 70.29003906 C-128.23743813 51.65124596 -106.25585819 36.86558745 -82.86474609 25.88378906 C-81.08140431 25.03858125 -79.31552932 24.15681083 -77.55078125 23.2734375 C-57.16409488 13.27414452 -35.26656124 6.73100856 -13.1875 1.6875 C-12.43992432 1.51565186 -11.69234863 1.34380371 -10.92211914 1.16674805 C-7.1194991 0.33175007 -3.9377431 0 0 0 Z " fill="#FBFCFC" transform="translate(488,199)"/>
<path d="M0 0 C1.07926758 0.18804199 2.15853516 0.37608398 3.27050781 0.56982422 C29.3915207 5.12632064 54.21033679 13.30000593 78 25 C78.82306641 25.39735352 79.64613281 25.79470703 80.49414062 26.20410156 C100.75476833 36.05538611 119.73892281 48.52178855 137 63 C137.56879883 63.46873535 138.13759766 63.9374707 138.72363281 64.42041016 C154.18482091 77.19471964 168.89936916 91.20163176 180.80126953 107.39111328 C182.00302593 109.00406127 183.24098488 110.58064844 184.49609375 112.15234375 C210.63788916 145.00773498 229.48478068 185.08568742 238.54589844 225.98681641 C238.93946435 227.73162529 239.37605709 229.46662264 239.8203125 231.19921875 C241.72759465 238.71792574 242.9247285 246.34307701 244.125 254 C244.29588135 255.08039551 244.4667627 256.16079102 244.64282227 257.27392578 C253.54606618 315.89249332 242.18205126 379.04540867 216 432 C215.60844727 432.7955127 215.21689453 433.59102539 214.81347656 434.41064453 C205.96333652 452.20719931 195.15876608 468.31314002 183 484 C182.29101562 484.92425781 181.58203125 485.84851563 180.8515625 486.80078125 C167.68038655 503.65451048 152.07881108 520.09600941 135 533 C133.79132654 533.93706145 132.58301999 534.87459628 131.375 535.8125 C107.70497559 554.03671422 81.94358439 568.40286279 54 579 C52.69264893 579.49838379 52.69264893 579.49838379 51.35888672 580.00683594 C27.30320932 589.0064135 -0.19691527 595.46678947 -26 595 C-26 594.67 -26 594.34 -26 594 C-25.39115967 593.86424561 -24.78231934 593.72849121 -24.1550293 593.58862305 C-21.33192185 592.95755665 -18.50971527 592.32254393 -15.6875 591.6875 C-14.73037109 591.47416016 -13.77324219 591.26082031 -12.78710938 591.04101562 C10.25552936 585.8428446 32.80525992 578.47052893 54 568 C54.91201172 567.55285645 55.82402344 567.10571289 56.76367188 566.64501953 C75.76406106 557.2512426 93.50363877 546.32311849 110 533 C110.89332031 532.29875 111.78664063 531.5975 112.70703125 530.875 C131.95440969 515.54473079 148.49418894 497.82053759 163 478 C163.50772949 477.31711914 164.01545898 476.63423828 164.53857422 475.93066406 C183.44741441 450.45566381 197.08512752 422.05922397 207 392 C207.48726562 390.55318848 207.48726562 390.55318848 207.984375 389.07714844 C216.00113379 364.96937481 220.09372509 338.97601508 220.203125 313.578125 C220.20882507 312.51623962 220.21452515 311.45435425 220.22039795 310.36029053 C220.22978633 308.12155126 220.23635718 305.88279856 220.24023438 303.64404297 C220.24985558 300.30019434 220.2809044 296.95698405 220.3125 293.61328125 C220.40268445 275.33049594 218.8375389 257.35497678 214.75 239.5 C214.53947998 238.56534912 214.32895996 237.63069824 214.11206055 236.66772461 C203.90424083 192.71055349 183.52094532 151.23115181 154 117 C153.06607422 115.89978516 153.06607422 115.89978516 152.11328125 114.77734375 C140.8820123 101.91323805 128.66150053 89.27975075 115 79 C113.7924374 78.06448755 112.58544939 77.12823315 111.37890625 76.19140625 C71.50557644 45.48651913 26.45530566 26.9365166 -23.0625 18.75 C-24.04871338 18.58653076 -25.03492676 18.42306152 -26.05102539 18.25463867 C-85.438718 8.94972318 -148.28833942 20.61346274 -201 49 C-201.58894043 49.31646484 -202.17788086 49.63292969 -202.78466797 49.95898438 C-216.07261383 57.17170919 -228.46616004 65.56680899 -240.29296875 74.96875 C-242.50202651 76.62634024 -244.48524186 77.89566707 -247 79 C-240.53005508 71.26762681 -233.74070825 64.62838656 -225.8671875 58.3125 C-224.03902199 56.83801228 -222.22933417 55.34010265 -220.4453125 53.8125 C-186.48288565 24.90830693 -141.35848961 7.76948096 -97.9375 0.125 C-96.78548096 -0.07834961 -95.63346191 -0.28169922 -94.4465332 -0.49121094 C-64.35667767 -5.44996756 -29.92440633 -5.758739 0 0 Z " fill="#2B5D74" transform="translate(392,62)"/>
<path d="M0 0 C5.48928912 2.92713422 7.75408108 6.18828506 10.4375 11.5625 C10.81946533 12.31063965 11.20143066 13.0587793 11.5949707 13.82958984 C22.32258628 35.40115801 27.97655957 59.35368767 32 83 C32.176521 84.02504639 32.35304199 85.05009277 32.53491211 86.10620117 C33.11197492 90.93747398 33.18154425 95.68940938 33.203125 100.55078125 C33.20882507 101.56359665 33.21452515 102.57641205 33.22039795 103.61991882 C33.22981762 105.76230842 33.23636983 107.90471232 33.24023438 110.04711914 C33.24985527 113.2641063 33.28087277 116.48043039 33.3125 119.69726562 C33.37654094 132.13274307 32.56856732 143.83029971 30 156 C29.81179688 156.9494751 29.62359375 157.8989502 29.4296875 158.87719727 C25.26775143 178.95325511 18.22169913 206.3995542 3 221 C3.40600165 219.50774491 3.81232821 218.01557822 4.21875 216.5234375 C4.49332031 215.51506836 4.76789062 214.50669922 5.05078125 213.46777344 C5.89091964 210.39850243 6.74047408 207.33197684 7.59228516 204.26593018 C8.3722783 201.44537704 9.14028925 198.62162334 9.90673828 195.79736328 C10.29769802 194.36577491 10.69310295 192.935392 11.09326172 191.50634766 C16.21417087 173.18713172 18.52481168 155.10734437 18.39111328 136.08789062 C18.37495832 133.36798335 18.39112598 130.64955197 18.41015625 127.9296875 C18.43166155 111.38764507 16.07549501 95.67095508 11.8125 79.6875 C11.50771729 78.54071777 11.20293457 77.39393555 10.88891602 76.21240234 C7.1468683 62.4766395 2.67445955 49.28600793 -3.62109375 36.50390625 C-3.93913467 35.85681702 -4.2571756 35.20972778 -4.58485413 34.54302979 C-6.16719534 31.33875334 -7.77547561 28.15157696 -9.42797852 24.98291016 C-12.79006613 18.34857394 -15.15586806 13.47914627 -14 6 C-10.91385638 0.73760922 -5.88637436 -1.07024988 0 0 Z " fill="#2B5C72" transform="translate(554,245)"/>
<path d="M0 0 C6.71807029 0.12202433 13.14408266 1.56569779 19.5625 3.4375 C20.45380615 3.6962793 21.3451123 3.95505859 22.26342773 4.22167969 C49.10446419 12.30663607 84.82031662 25.40176417 104 47 C104.68359375 49.5546875 104.68359375 49.5546875 104.4375 51.875 C104.37433594 52.65617187 104.31117188 53.43734375 104.24609375 54.2421875 C104.12427734 55.11230469 104.12427734 55.11230469 104 56 C102.37890625 56.765625 102.37890625 56.765625 100 57 C97.819028 55.66633409 95.93264687 54.3240606 93.9375 52.75 C69.9203295 34.77154215 40.81462078 21.58542781 11.54980469 15.1652832 C6.05561485 13.88379007 2.48055073 12.7693739 -1 8 C-1.375 4.25 -1.375 4.25 -1 1 C-0.67 0.67 -0.34 0.34 0 0 Z " fill="#2F5D73" transform="translate(163,425)"/>
<path d="M0 0 C0.08131463 1.43655854 0.13933559 2.8744483 0.1875 4.3125 C0.23970703 5.51326172 0.23970703 5.51326172 0.29296875 6.73828125 C-0.07673549 9.59239798 -0.80237969 10.19422698 -3 12 C-5.14868164 12.85473633 -5.14868164 12.85473633 -7.59765625 13.51953125 C-8.48727051 13.76783691 -9.37688477 14.01614258 -10.29345703 14.27197266 C-11.18661621 14.51222168 -12.07977539 14.7524707 -13 15 C-14.56190554 15.43889578 -16.12313195 15.88021721 -17.68359375 16.32421875 C-18.84157471 16.65329224 -18.84157471 16.65329224 -20.02294922 16.98901367 C-48.03208318 25.09155485 -76.6380281 38.41103893 -99.26025391 56.98510742 C-100.12142822 57.48747925 -100.12142822 57.48747925 -101 58 C-101.99 57.67 -102.98 57.34 -104 57 C-104.60913706 49.81218274 -104.60913706 49.81218274 -102.125 46.5 C-101.10114324 45.64487941 -100.05619201 44.81484497 -99 44 C-98.30648438 43.40574219 -97.61296875 42.81148438 -96.8984375 42.19921875 C-78.93867029 27.13524463 -25.00848967 -7.81515302 0 0 Z " fill="#2D5B6F" transform="translate(458,336)"/>
<path d="M0 0 C3.95643932 0.31927145 7.45922785 1.34975948 11.19238281 2.61523438 C11.93459579 2.85984909 12.67680878 3.10446381 13.44151306 3.35649109 C15.83624616 4.15055647 18.22553665 4.95952655 20.61425781 5.77148438 C21.42827057 6.04570221 22.24228333 6.31992004 23.08096313 6.60244751 C34.80134899 10.55814827 46.31364206 14.66964869 57.36425781 20.27148438 C58.0801709 20.62807129 58.79608398 20.9846582 59.53369141 21.35205078 C73.79359361 28.49593664 88.98192471 36.88915127 100.36425781 48.27148438 C100.27487979 49.79667714 100.11888635 51.31830367 99.92675781 52.83398438 C99.82492187 53.66027344 99.72308594 54.4865625 99.61816406 55.33789062 C99.49248047 56.29501953 99.49248047 56.29501953 99.36425781 57.27148438 C94.01304135 56.84044336 90.42763074 53.82165431 86.17675781 50.83398438 C77.20490375 44.7018582 68.00232076 39.28484039 58.36425781 34.27148438 C57.69668457 33.92134277 57.02911133 33.57120117 56.34130859 33.21044922 C39.45680173 24.47362569 20.96840497 17.99009659 2.34082031 14.22070312 C-1.02727983 13.14662394 -2.50921374 12.07416629 -4.63574219 9.27148438 C-5.01074219 5.64648438 -5.01074219 5.64648438 -4.63574219 2.27148438 C-2.63574219 0.27148438 -2.63574219 0.27148438 0 0 Z " fill="#2E5D72" transform="translate(166.6357421875,462.728515625)"/>
<path d="M0 0 C6.56242303 0.13767321 12.63249442 2.27114658 18.8125 4.3125 C19.69647461 4.6027002 20.58044922 4.89290039 21.49121094 5.19189453 C48.73287694 14.26482427 80.04168575 26.54168575 100.8125 47.3125 C101.0078125 49.6953125 101.0078125 49.6953125 100.9375 52.4375 C100.91945313 53.34757812 100.90140625 54.25765625 100.8828125 55.1953125 C100.85960937 55.89398438 100.83640625 56.59265625 100.8125 57.3125 C96.58780937 56.7712585 94.26593229 55.42547488 90.9375 52.8125 C66.53815677 34.52115835 35.11471207 20.10574902 5.22167969 14.17333984 C-0.7120261 12.88052798 -0.7120261 12.88052798 -3.234375 9.8671875 C-4.36259939 6.84317623 -4.47866522 4.51531739 -4.1875 1.3125 C-3.1875 0.3125 -3.1875 0.3125 0 0 Z " fill="#2E5C70" transform="translate(166.1875,386.6875)"/>
<path d="M0 0 C1 1 1 1 1.3125 4.3125 C1 8 1 8 -0.63549805 10.09130859 C-3.40848536 12.32974069 -5.74091501 13.18204521 -9.14453125 14.2265625 C-10.97890747 14.80664062 -10.97890747 14.80664062 -12.8503418 15.3984375 C-13.49643402 15.59791992 -14.14252625 15.79740234 -14.80819702 16.00292969 C-43.61904514 24.94487783 -70.16754586 37.69936185 -94.73583984 55.23925781 C-98.67819908 58 -98.67819908 58 -102 58 C-103.49986273 55.00027454 -103.5048832 53.34485121 -103 50 C-98.98259589 44.94148893 -93.69679898 40.99286651 -88.4375 37.3125 C-87.71208008 36.80485107 -86.98666016 36.29720215 -86.23925781 35.77416992 C-63.12783444 19.97682658 -37.27926293 10.13086482 -11 1 C-9.82953125 0.57976562 -8.6590625 0.15953125 -7.453125 -0.2734375 C-4.57194609 -1.1267803 -2.84450433 -0.89398707 0 0 Z " fill="#2D5B70" transform="translate(457,259)"/>
<path d="M0 0 C1.87643761 1.87643761 1.17984987 4.49805701 1.23046875 6.9921875 C1 9 1 9 -1 12 C-3.79956055 13.09985352 -3.79956055 13.09985352 -7.38671875 14.12890625 C-8.71994493 14.52232254 -10.05302826 14.91622315 -11.38598633 15.31054688 C-12.08768951 15.51413818 -12.7893927 15.71772949 -13.51235962 15.92749023 C-28.19827556 20.21489169 -42.20609088 25.33157889 -56 32 C-56.81678223 32.39123047 -57.63356445 32.78246094 -58.47509766 33.18554688 C-72.40658198 39.94463634 -85.96162955 48.10071088 -98.14477539 57.68774414 C-100 59 -100 59 -102 59 C-103.62342342 55.75315316 -103.47167894 53.5965519 -103 50 C-98.91526721 44.5990151 -93.18008998 40.76864321 -87.5625 37.125 C-86.7782666 36.6103418 -85.9940332 36.09568359 -85.18603516 35.56542969 C-77.65185112 30.67617672 -69.92938554 26.21242388 -62 22 C-61.3694873 21.6601709 -60.73897461 21.3203418 -60.08935547 20.97021484 C-45.5724133 13.19288303 -30.20404338 7.57549934 -14.5625 2.5 C-13.78801514 2.24460449 -13.01353027 1.98920898 -12.21557617 1.72607422 C-8.03428416 0.41246818 -4.43881517 -0.3841942 0 0 Z " fill="#2E5C71" transform="translate(457,297)"/>
<path d="M0 0 C1.87643761 1.87643761 1.17984987 4.49805701 1.23046875 6.9921875 C1 9 1 9 -1 12 C-3.41992188 12.96386719 -3.41992188 12.96386719 -6.46875 13.796875 C-7.58830078 14.11197021 -8.70785156 14.42706543 -9.86132812 14.75170898 C-11.06208984 15.08114502 -12.26285156 15.41058105 -13.5 15.75 C-24.61845856 18.92910208 -35.39335939 22.39009789 -46 27 C-46.75120117 27.32548828 -47.50240234 27.65097656 -48.27636719 27.98632812 C-64.04850513 34.92159445 -79.56083581 43.29154148 -93.125 53.98828125 C-95 55 -95 55 -97.1875 54.73046875 C-99 54 -99 54 -100 53 C-100.38671875 50.25390625 -100.38671875 50.25390625 -100 47 C-81.63033164 24.88141973 -28.97342499 -2.51942826 0 0 Z " fill="#2E5C71" transform="translate(457,374)"/>
<path d="M0 0 C8.89510184 0.10635448 17.18702747 3.42698708 25.5 6.3125 C26.26957031 6.57744263 27.03914063 6.84238525 27.83203125 7.11535645 C38.12624388 10.67853255 48.16292963 14.54998178 58 19.25 C58.96357422 19.70802002 59.92714844 20.16604004 60.91992188 20.63793945 C67.81448148 24.07001424 73.91399571 28.29567036 80 33 C80.8883252 33.68400879 81.77665039 34.36801758 82.69189453 35.07275391 C85.38829829 37.32422538 87.01025522 39.65581411 88.875 42.625 C89.49117188 43.58664062 90.10734375 44.54828125 90.7421875 45.5390625 C91.15726562 46.35117187 91.57234375 47.16328125 92 48 C91.505 48.99 91.505 48.99 91 50 C90.01008057 49.47680176 89.02016113 48.95360352 88.00024414 48.41455078 C62.85407432 35.15868426 38.33515112 22.98053441 10.67724609 15.77270508 C2.63430955 13.58635177 2.63430955 13.58635177 -0.73828125 10.46875 C-2.30370077 7.40576195 -2.45261399 5.39460492 -2 2 C-1.34 1.34 -0.68 0.68 0 0 Z " fill="#2E5D71" transform="translate(164,348)"/>
<path d="M0 0 C-0.33 1.32 -0.66 2.64 -1 4 C-0.34 4.33 0.32 4.66 1 5 C-3.47762569 5.67729549 -7.95730937 6.33990223 -12.4375 7 C-13.69755859 7.19078125 -14.95761719 7.3815625 -16.25585938 7.578125 C-22.91452384 8.55171563 -29.27077129 9.23431482 -36 9 C-36 8.67 -36 8.34 -36 8 C-35.39115967 7.86424561 -34.78231934 7.72849121 -34.1550293 7.58862305 C-19.45723601 4.36575198 -19.45723601 4.36575198 -4.92578125 0.48046875 C-3 0 -3 0 0 0 Z " fill="#3C6275" transform="translate(402,648)"/>
<path d="M0 0 C0.99 0.33 1.98 0.66 3 1 C2.01 2.485 2.01 2.485 1 4 C1 4.66 1 5.32 1 6 C-0.92984733 7.45797244 -2.85609442 8.80063604 -4.875 10.125 C-10.16519305 13.66752703 -15.12470338 17.43184856 -19.9765625 21.56640625 C-22 23 -22 23 -25 23 C-17.34926125 15.13032119 -9.63778754 7.79154288 -1 1 C-0.67 0.67 -0.34 0.34 0 0 Z " fill="#335B6D" transform="translate(170,117)"/>
<path d="M0 0 C0.66 0.33 1.32 0.66 2 1 C-4.82626992 9.15822503 -12.43799837 16.53279684 -20 24 C-20.66 23.67 -21.32 23.34 -22 23 C-14.87735425 15.10584911 -7.58484297 7.45280508 0 0 Z " fill="#355C6D" transform="translate(336,240)"/>
<path d="M0 0 C0.33 0 0.66 0 1 0 C1 18.81 1 37.62 1 57 C0.01 56.01 -0.98 55.02 -2 54 C-1.67 53.34 -1.34 52.68 -1 52 C-0.88112044 50.33600717 -0.82288056 48.66750725 -0.79467773 46.99951172 C-0.77473251 45.95858368 -0.75478729 44.91765564 -0.73423767 43.84518433 C-0.71752518 42.71807037 -0.70081268 41.59095642 -0.68359375 40.4296875 C-0.66281265 39.27832306 -0.64203156 38.12695862 -0.62062073 36.94070435 C-0.55508335 33.2521986 -0.49622072 29.56361997 -0.4375 25.875 C-0.39431877 23.37889862 -0.35070462 20.8828047 -0.30664062 18.38671875 C-0.19939769 12.25789019 -0.09763911 6.12898867 0 0 Z " fill="#F1FEFF" transform="translate(296,539)"/>
<path d="M0 0 C0.66 0.33 1.32 0.66 2 1 C-5.59 8.59 -13.18 16.18 -21 24 C-21.66 23.67 -22.32 23.34 -23 23 C-15.69568836 14.86710152 -8.2434374 7.18866687 0 0 Z " fill="#E0EEF1" transform="translate(357,255)"/>
<path d="M0 0 C-0.99 0.33 -1.98 0.66 -3 1 C-3.33 1.66 -3.66 2.32 -4 3 C-9.81751117 4.3764647 -16.06431476 4.09421723 -22 4 C-22 3.67 -22 3.34 -22 3 C-19.08559401 2.3013821 -16.16913913 1.6157969 -13.25 0.9375 C-12.425 0.73833984 -11.6 0.53917969 -10.75 0.33398438 C-9.55117188 0.05844727 -9.55117188 0.05844727 -8.328125 -0.22265625 C-7.5949707 -0.39547119 -6.86181641 -0.56828613 -6.10644531 -0.74633789 C-3.79867217 -1.02424428 -2.20083963 -0.69809241 0 0 Z " fill="#4C6774" transform="translate(388,653)"/>
<path d="M0 0 C0 4.91886814 -3.68826689 7.6051539 -7 11 C-9.27699716 13.08798002 -11.60502418 15.0449177 -14 17 C-14.66 16.67 -15.32 16.34 -16 16 C-10.72 10.72 -5.44 5.44 0 0 Z " fill="#D5E6EC" transform="translate(559,564)"/>
<path d="M0 0 C0.66 0.99 1.32 1.98 2 3 C-2.29 6.63 -6.58 10.26 -11 14 C-11.66 13.67 -12.32 13.34 -13 13 C-8.71 8.71 -4.42 4.42 0 0 Z " fill="#526B77" transform="translate(158,127)"/>
<path d="M0 0 C0.99 0 1.98 0 3 0 C2.36934243 3.21852831 1.21979305 5.50801069 -0.5625 8.25 C-1.01753906 8.95640625 -1.47257813 9.6628125 -1.94140625 10.390625 C-2.29074219 10.92171875 -2.64007812 11.4528125 -3 12 C-4 10 -4 10 -3.22265625 7.6171875 C-2.83980469 6.71226562 -2.45695313 5.80734375 -2.0625 4.875 C-1.68222656 3.96492188 -1.30195312 3.05484375 -0.91015625 2.1171875 C-0.60980469 1.41851562 -0.30945313 0.71984375 0 0 Z " fill="#476674" transform="translate(561,454)"/>
<path d="M0 0 C0.33 0 0.66 0 1 0 C1 6.27 1 12.54 1 19 C0.01 18.01 -0.98 17.02 -2 16 C-1.67 15.34 -1.34 14.68 -1 14 C-0.76970044 11.62876754 -0.58880058 9.25258057 -0.4375 6.875 C-0.35371094 5.59367188 -0.26992188 4.31234375 -0.18359375 2.9921875 C-0.09271484 1.51105469 -0.09271484 1.51105469 0 0 Z " fill="#E4F7FA" transform="translate(296,577)"/>
<path d="M0 0 C2.13562754 2.13562754 2.63318342 3.06546739 3 6 C2.34 6.66 1.68 7.32 1 8 C0.01 7.67 -0.98 7.34 -2 7 C-1.125 1.125 -1.125 1.125 0 0 Z " fill="#386073" transform="translate(563,447)"/>
<path d="M0 0 C4.455 0.99 4.455 0.99 9 2 C8.67 3.65 8.34 5.3 8 7 C6.66382648 6.02471263 5.3311249 5.04466681 4 4.0625 C3.2575 3.51722656 2.515 2.97195312 1.75 2.41015625 C1.1725 1.94480469 0.595 1.47945312 0 1 C0 0.67 0 0.34 0 0 Z " fill="#D9EDF2" transform="translate(167,207)"/>
<path d="M0 0 C2.0625 0.4375 2.0625 0.4375 4 1 C3.34 1.66 2.68 2.32 2 3 C1.60235737 4.98821313 1.26224651 6.98944339 1 9 C0.34 8.67 -0.32 8.34 -1 8 C-1.04241723 5.66705225 -1.04092937 3.33297433 -1 1 C-0.67 0.67 -0.34 0.34 0 0 Z " fill="#456877" transform="translate(163,425)"/>
<path d="M0 0 C0.66 0.33 1.32 0.66 2 1 C-0.31 3.64 -2.62 6.28 -5 9 C-5.66 8.67 -6.32 8.34 -7 8 C-4.69 5.36 -2.38 2.72 0 0 Z " fill="#3B6376" transform="translate(539,560)"/>
<path d="M0 0 C1.65 1.65 3.3 3.3 5 5 C4.01 5.99 3.02 6.98 2 8 C-0.1519437 4.77208445 -0.20086443 3.71599191 0 0 Z " fill="#365D6F" transform="translate(298,457)"/>
<path d="M0 0 C0.66 0.33 1.32 0.66 2 1 C0.02 3.31 -1.96 5.62 -4 8 C-4.66 7.34 -5.32 6.68 -6 6 C-4.02 4.02 -2.04 2.04 0 0 Z " fill="#426778" transform="translate(336,240)"/>
<path d="M0 0 C0.66 0.33 1.32 0.66 2 1 C-1.17320782 4.53586014 -3.16743695 6.58578031 -8 7 C-5.4837822 4.39391727 -2.94865641 2.10618315 0 0 Z " fill="#D9EAEF" transform="translate(516,602)"/>
<path d="M0 0 C-2 2 -2 2 -5.625 2.125 C-6.73875 2.08375 -7.8525 2.0425 -9 2 C-6.98558063 -2.02883874 -3.72407517 -0.90585612 0 0 Z " fill="#2E5364" transform="translate(393,653)"/>
<path d="M0 0 C1.32 1.32 2.64 2.64 4 4 C3.67 4.66 3.34 5.32 3 6 C1.02 5.01 -0.96 4.02 -3 3 C-2.01 2.67 -1.02 2.34 0 2 C0 1.34 0 0.68 0 0 Z " fill="#516C78" transform="translate(252,392)"/>
</svg>
