<svg viewBox="0 0 24 24" fill="currentColor" xmlns="http://www.w3.org/2000/svg">
  <path fill-rule="evenodd" clip-rule="evenodd" d="M3 7C3 5.89543 3.89543 5 5 5H10C11.1046 5 12 5.89543 12 7V17C12 18.1046 11.1046 19 10 19H5C3.89543 19 3 18.1046 3 17V7ZM7.5 7L5 16H6.5L7 14H9L9.5 16H11L8.5 7H7.5ZM8 11.5L7.3 12.8H8.7L8 11.5Z"/>
  <path d="M13 4H17V5.5H15.75V18.5H17V20H13V18.5H14.25V5.5H13V4Z"/>
  <path d="M18 7V18H19.2V16C19.6 17.2 20.4 18.2 21.6 18.2C23.2 18.2 24 16.6 24 14.6C24 12.6 23.2 11 21.6 11C20.4 11 19.6 12 19.2 13.2V7H18ZM21 12.5C22 12.5 22.5 13.3 22.5 14.6C22.5 15.9 22 16.7 21 16.7C20 16.7 19.5 15.9 19.5 14.6C19.5 13.3 20 12.5 21 12.5Z"/>
</svg>
